Coordinates
version=1
nRows=54
nColumns=12
inDegrees=yes

Units are S.I. units (second, meters, Newtons, ...)
Angles are in degrees

endheader
time	SC_y	SC_z	SC_x	AC_y	AC_z	AC_x	GH_y	GH_z	GH_yy	EL_x	PS_y
       0.0              -11.77          34.66          17.84          36.74         -2.837         0.3026          101.6          58.12         -125.2          29.38          89.38
   0.03295              -11.77          34.65          17.84          36.74         -2.836         0.3013          101.6          58.13         -125.2          29.39          89.39
    0.0659              -11.77          34.65          17.84          36.75         -2.835            0.3          101.5          58.13         -125.2          29.39           89.4
   0.09885              -11.77          34.65          17.84          36.75         -2.834         0.2985          101.5          58.13         -125.1          29.39          89.41
    0.1318              -11.77          34.64          17.84          36.75         -2.833         0.2969          101.5          58.13         -125.1          29.39          89.42
    0.1647              -11.78          34.64          17.84          36.76         -2.832         0.2953          101.4          58.14         -125.1          29.39          89.43
    0.1977              -11.78          34.63          17.84          36.76          -2.83         0.2935          101.4          58.14         -125.0          29.39          89.44
    0.2306              -11.78          34.63          17.84          36.76         -2.829         0.2916          101.3          58.15         -125.0          29.39          89.45
    0.2636              -11.78          34.62          17.84          36.76         -2.828         0.2895          101.3          58.15         -124.9          29.39          89.46
    0.2965              -11.79          34.61          17.84          36.77         -2.826         0.2873          101.3          58.15         -124.9          29.39          89.47
    0.3295              -11.79          34.61          17.84          36.77         -2.825          0.285          101.2          58.16         -124.8          29.39          89.49
    0.3624              -11.79           34.6          17.84          36.78         -2.823         0.2825          101.1          58.16         -124.8          29.39           89.5
    0.3954              -11.79          34.59          17.84          36.78         -2.821         0.2797          101.1          58.17         -124.7          29.39          89.52
    0.4283               -11.8          34.58          17.84          36.79         -2.819         0.2768          101.0          58.18         -124.7           29.4          89.53
    0.4613               -11.8          34.57          17.84          36.79         -2.817         0.2736          101.0          58.18         -124.6           29.4          89.55
    0.4942              -11.81          34.56          17.84           36.8         -2.814         0.2702          100.9          58.19         -124.5           29.4          89.57
    0.5272              -11.81          34.55          17.84           36.8         -2.811         0.2664          100.8           58.2         -124.4           29.4          89.59
    0.5601              -11.82          34.54          17.84          36.81         -2.809         0.2623          100.7           58.2         -124.4           29.4          89.62
    0.5931              -11.82          34.53          17.84          36.82         -2.805         0.2579          100.6          58.21         -124.3           29.4          89.64
     0.626              -11.83          34.51          17.84          36.83         -2.802          0.253          100.5          58.22         -124.2           29.4          89.67
     0.659              -11.83           34.5          17.84          36.84         -2.798         0.2476          100.4          58.23         -124.1          29.41           89.7
    0.6919              -11.84          34.48          17.84          36.85         -2.794         0.2417          100.2          58.25         -123.9          29.41          89.74
    0.7249              -11.85          34.46          17.84          36.86          -2.79         0.2352          100.1          58.26         -123.8          29.41          89.77
    0.7578              -11.86          34.44          17.84          36.87         -2.784         0.2279          99.94          58.27         -123.6          29.41          89.82
    0.7908              -11.87          34.42          17.84          36.88         -2.779         0.2199          99.76          58.29         -123.5          29.42          89.86
    0.8237              -11.88          34.39          17.84           36.9         -2.773         0.2109          99.56          58.31         -123.3          29.42          89.92
    0.8567              -11.89          34.36          17.84          36.91         -2.765         0.2009          99.34          58.33         -123.1          29.43          89.97
    0.8896               -11.9          34.33          17.84          36.93         -2.758         0.1896          99.09          58.35         -122.8          29.43          90.04
    0.9226              -11.92          34.29          17.84          36.95         -2.749         0.1768          98.81          58.38         -122.6          29.44          90.11
    0.9555              -11.93          34.25          17.84          36.98         -2.738         0.1623          98.49           58.4         -122.3          29.44           90.2
    0.9885              -11.95           34.2          17.84          37.01         -2.727         0.1458          98.12          58.44         -121.9          29.45          90.29
     1.021              -11.98          34.15          17.84          37.04         -2.713         0.1268           97.7          58.48         -121.5          29.46           90.4
     1.054               -12.0          34.08          17.84          37.07         -2.698         0.1048          97.21          58.52         -121.1          29.46          90.53
     1.087              -12.03          34.01          17.84          37.12          -2.68        0.07936          96.65          58.57         -120.5          29.47          90.68
      1.12              -12.07          33.92          17.85          37.17         -2.659        0.04955          95.99          58.63         -119.9          29.49          90.85
     1.153              -12.11          33.82          17.85          37.23         -2.634         0.0144          95.21           58.7         -119.2           29.5          91.06
     1.186              -12.16           33.7          17.85           37.3         -2.605       -0.02736          94.29          58.78         -118.3          29.52           91.3
     1.219              -12.22          33.56          17.85          37.38          -2.57       -0.07743          93.18          58.88         -117.3          29.54          91.59
     1.252              -12.29          33.38          17.85          37.48         -2.527         -0.138          91.84           59.0         -116.0          29.56          91.94
     1.285              -12.38          33.16          17.85          37.61         -2.475         -0.212           90.2          59.15         -114.4          29.59          92.37
     1.318              -12.49           32.9          17.86          37.76         -2.411        -0.3033          88.18          59.34         -112.5          29.63           92.9
     1.351              -12.62          32.57          17.86          37.95         -2.331        -0.4172          85.65          59.56         -110.1          29.68          93.56
     1.384              -12.79          32.15          17.86          38.19         -2.231        -0.5606          82.48          59.85         -107.1          29.73           94.4
     1.417              -13.01          31.62          17.87           38.5         -2.102         -0.743          78.44          60.21         -103.3          29.81          95.45
      1.45              -13.28          30.95          17.88          38.89         -1.939        -0.9764          73.27          60.68         -98.45           29.9          96.81
     1.483              -13.64          30.08          17.89          39.39         -1.728         -1.276          66.64          61.28         -92.18          30.02          98.55
     1.516              -14.09          28.97           17.9          40.03         -1.459         -1.659          58.17          62.05         -84.17          30.18          100.8
     1.549              -14.66          27.57          17.91          40.84         -1.122          -2.14          47.51          63.01         -74.11          30.37          103.6
     1.582              -15.35          25.87          17.93          41.82        -0.7097         -2.726          34.53          64.18         -61.84          30.61          107.0
     1.614              -16.16           23.9          17.95          42.96        -0.2324         -3.405          19.49          65.54         -47.62          30.88          110.9
     1.647              -17.03          21.76          17.98           44.2         0.2844         -4.141          3.192          67.01         -32.23          31.18          115.2
      1.68               -17.9          19.63           18.0          45.43         0.8013         -4.877          -13.1          68.48         -16.83          31.48          119.5
     1.713              -18.71          17.66          18.02          46.57          1.279         -5.557         -28.15          69.84         -2.614          31.75          123.4
     1.746               -19.4          15.96          18.04          47.56           1.69         -6.143         -41.13          71.02          9.652          31.99          126.8
